# xmcd
#
# Track frame offsets:
#	150
#	16402
#	32022
#	49997
#	64055
#	79350
#	92707
#	107622
#	122702
#	138772
#	159010
#	174652
#	188115
#	202020
#
# Disc length: 2871 seconds
#
# Revision: 1
# Processed by: cddbd v1.5.2PL0 Copyright (c) Steve Scherf et al.
# Submitted via: EZCDAudioConverter 6.0.7.1
#
DISCID=b70b350e
DTITLE=Bill Anderson - Out In The Country
DYEAR=1994
DGENRE=Country
TTITLE0=Once More
TTITLE1=No Ordinary Memory
TTITLE2=A Place In The Country
TTITLE3=Family Reunion
TTITLE4=I'll Hold You In My Heart (Till I Can Hold You In My Arms Again)
TTITLE5=Your Eyes Don't Lie To Me
TTITLE6=Green Green Grass Of Home
TTITLE7=Deck Of Cards
TTITLE8=Detroit City
TTITLE9=I Wonder If God Likes Country Music
TTITLE10=We May Never Pass This Way Again
TTITLE11=Father and Sons
TTITLE12=I Wonder Where You Are Tonight
TTITLE13=Before I Met You
EXTD=
EXTT0=
EXTT1=
EXTT2=
EXTT3=
EXTT4=
EXTT5=
EXTT6=
EXTT7=
EXTT8=
EXTT9=
EXTT10=
EXTT11=
EXTT12=
EXTT13=
PLAYORDER=
